<svg id="Layer_1" data-name="Layer 1" xmlns="http://www.w3.org/2000/svg" width="161.65" height="35.54" viewBox="0 0 161.65 35.54"><defs><style>.cls-1{isolation:isolate;font-size:32px;fill:#494d4b;font-family:GalanoGrotesqueAlt-ExtraBold;font-weight:800;}.cls-2{letter-spacing:-0.01em;}.cls-3{fill:#96ffd1;}.cls-4{fill:#01eba4;}.cls-5{fill:#8299fd;}.cls-6{fill:#340d6b;}</style></defs><title>logo</title><text class="cls-1" transform="translate(0 27.54)">GOC</text><text class="cls-1" transform="translate(120.37 27.42)"><tspan class="cls-2">S</tspan><tspan x="20.38" y="0">T</tspan></text><rect class="cls-3" x="79.85" y="22.5" width="2.9" height="6.7"/><path class="cls-4" d="M85.9,22.4a2.48,2.48,0,0,0-2.5,2.5h0v8a2.48,2.48,0,0,0,2.5,2.5h3.6v-13Z" transform="translate(-0.75 -3)"/><rect class="cls-3" x="112.25" y="22.5" width="2.9" height="6.7"/><path class="cls-4" d="M110.5,22.4h-3.6v13h3.6a2.48,2.48,0,0,0,2.5-2.5h0v-8a2.48,2.48,0,0,0-2.5-2.5Z" transform="translate(-0.75 -3)"/><path class="cls-5" d="M87.7,10.2h0a1.78,1.78,0,0,1,0-2.6c.1-.1.1-.1.2-.1a16.67,16.67,0,0,1,20.6-.1,1.88,1.88,0,0,1,.3,2.6c0,.1-.1.1-.1.2h0a1.85,1.85,0,0,1-2.5.1,12.91,12.91,0,0,0-15.9.1A2.1,2.1,0,0,1,87.7,10.2Z" transform="translate(-0.75 -3)"/><path class="cls-6" d="M115.9,24.7h-2.1V20.4a15.47,15.47,0,0,0-2.7-8.8.79.79,0,1,0-1.3.9,13.87,13.87,0,0,1,2.4,7.9V22a3.37,3.37,0,0,0-1.7-.5h-3.6a.86.86,0,0,0-.8.8h0v2.2a.8.8,0,1,0,1.6,0V23.1h2.8a1.75,1.75,0,0,1,1.7,1.7v8a1.75,1.75,0,0,1-1.7,1.7h-2.8V31.6a.8.8,0,1,0-1.6,0v3.7a.86.86,0,0,0,.8.8h3.6a3.36,3.36,0,0,0,3.3-3.1h2.1a.86.86,0,0,0,.8-.8V25.5A.86.86,0,0,0,115.9,24.7Zm-.8,6.8h-1.3V26.3h1.3Z" transform="translate(-0.75 -3)"/><path class="cls-6" d="M106.9,29.2a.86.86,0,0,0,.8-.8V28a.8.8,0,1,0-1.6,0v.4C106.2,28.8,106.5,29.2,106.9,29.2Z" transform="translate(-0.75 -3)"/><path class="cls-6" d="M109.1,10.6a3,3,0,0,0,.8-2.1,2.58,2.58,0,0,0-1-1.9A17.68,17.68,0,0,0,98.2,3a22.75,22.75,0,0,0-2.6.2,1,1,0,0,0-.7.9,1,1,0,0,0,.9.7,19.53,19.53,0,0,1,2.3-.2,16,16,0,0,1,9.7,3.3,1.23,1.23,0,0,1,.4.8,1.61,1.61,0,0,1-.3.9,1.07,1.07,0,0,1-1.4.1,13.67,13.67,0,0,0-16.9.1,1.07,1.07,0,0,1-1.4-.1,1.14,1.14,0,0,1-.3-.8,1.23,1.23,0,0,1,.4-.8c.7-.5,1.4-1,2.1-1.4a.8.8,0,0,0,.3-1.1.76.76,0,0,0-1-.4h0a18.82,18.82,0,0,0-2.3,1.6,3,3,0,0,0-1,1.9,2.77,2.77,0,0,0,.3,1.3,15.57,15.57,0,0,0-4,10.4v4.3H80.6a.86.86,0,0,0-.8.8v6.7a.8.8,0,1,0,1.6,0V26.3h1.3v6.6A3.33,3.33,0,0,0,86,36.2h3.6a.86.86,0,0,0,.8-.8v-13a.86.86,0,0,0-.8-.8H86a.8.8,0,1,0,0,1.6h2.8V34.6H86a1.75,1.75,0,0,1-1.7-1.7V20.5a14,14,0,0,1,3.5-9.3,3,3,0,0,0,3-.2,12.16,12.16,0,0,1,15-.1A2.38,2.38,0,0,0,109.1,10.6Z" transform="translate(-0.75 -3)"/><path class="cls-6" d="M92.7,5.5H93c.1,0,.2-.1.3-.1a.83.83,0,0,0,.5-1,.83.83,0,0,0-1-.5c-.1,0-.2.1-.3.1A.69.69,0,0,0,92,5a.75.75,0,0,0,.7.5Z" transform="translate(-0.75 -3)"/><path class="cls-6" d="M92.1,25.9A.78.78,0,0,0,93.2,27a7.06,7.06,0,0,1,9.9,0,.78.78,0,1,0,1.1-1.1A8.45,8.45,0,0,0,92.1,25.9Z" transform="translate(-0.75 -3)"/><path class="cls-6" d="M94.1,27.8a.78.78,0,0,0,1.1,1.1h0a4.17,4.17,0,0,1,6,0,.78.78,0,1,0,1.1-1.1h0A5.92,5.92,0,0,0,94.1,27.8Z" transform="translate(-0.75 -3)"/><path class="cls-6" d="M98.2,29.1a2.9,2.9,0,1,0,2.9,2.9,2.79,2.79,0,0,0-.8-2A2.88,2.88,0,0,0,98.2,29.1Zm.9,3.8a1.27,1.27,0,1,1,0-1.8,1.27,1.27,0,0,1,0,1.8Z" transform="translate(-0.75 -3)"/></svg>